<svg width="36" height="36" viewBox="0 0 36 36" fill="none" xmlns="http://www.w3.org/2000/svg">
<rect width="36" height="36" rx="18" fill="#DCF5FF"/>
<path d="M18 12C19.5913 12 21.1174 12.6321 22.2426 13.7574C23.3679 14.8826 24 16.4087 24 18C24 20.22 22.79 22.16 21 23.2V25C21 25.2652 20.8946 25.5196 20.7071 25.7071C20.5196 25.8946 20.2652 26 20 26H16C15.7348 26 15.4804 25.8946 15.2929 25.7071C15.1054 25.5196 15 25.2652 15 25V23.2C13.21 22.16 12 20.22 12 18C12 16.4087 12.6321 14.8826 13.7574 13.7574C14.8826 12.6321 16.4087 12 18 12ZM20 27V28C20 28.2652 19.8946 28.5196 19.7071 28.7071C19.5196 28.8946 19.2652 29 19 29H17C16.7348 29 16.4804 28.8946 16.2929 28.7071C16.1054 28.5196 16 28.2652 16 28V27H20ZM26 17H29V19H26V17ZM7 17H10V19H7V17ZM19 7V10H17V7H19ZM10.92 9.5L13.05 11.64L11.63 13.05L9.5 10.93L10.92 9.5ZM22.95 11.63L25.07 9.5L26.5 10.93L24.37 13.05L22.95 11.63Z" fill="#2D9CDB"/>
</svg>
